<?xml version="1.0" encoding="UTF-8"?>
<svg width="190px" height="190px" viewBox="0 0 190 190" version="1.1" xmlns="http://www.w3.org/2000/svg" xmlns:xlink="http://www.w3.org/1999/xlink">
    <!-- Generator: Sketch 50.2 (55047) - http://www.bohemiancoding.com/sketch -->
    <title>ptz-全部</title>
    <desc>Created with Sketch.</desc>
    <g id="symbolsContainer">
        <symbol class="controller_ptzitem" id="icon-1" viewBox="0 0 40 40">
            <image xlink:href="arrow.svg" x="0" y="0" height="50px" width="40px" />
        </symbol>

        <symbol class="controller_ptzitem" id="icon-2" viewBox="0 0 40 40">
            <image xlink:href="arrow.svg" x="0" y="0" height="50px" width="40px" />
        </symbol>

        <symbol class="controller_ptzitem" id="icon-3" viewBox="0 0 40 40">
            <image xlink:href="arrow.svg" x="0" y="0" height="50px" width="40px" />
        </symbol>

        <symbol class="controller_ptzitem" id="icon-4" viewBox="0 0 40 40">
            <image xlink:href="arrow.svg" x="0" y="0" height="50px" width="40px" />
        </symbol>

        <symbol class="controller_ptzitem" id="icon-5" viewBox="0 0 40 40">
            <image xlink:href="arrow.svg" x="0" y="0" height="50px" width="40px" />
        </symbol>

        <symbol class="controller_ptzitem" id="icon-5" viewBox="0 0 40 40">
            <image xlink:href="arrow.svg" x="0" y="0" height="50px" width="40px" />
        </symbol>

        <symbol class="controller_ptzitem" id="icon-6" viewBox="0 0 40 40">
            <image xlink:href="arrow.svg" x="0" y="0" height="50px" width="40px" />
        </symbol>

        <symbol class="controller_ptzitem" id="icon-7" viewBox="0 0 40 40">
            <image xlink:href="arrow.svg" x="0" y="0" height="50px" width="40px" />
        </symbol>

        <symbol class="controller_ptzitem" id="icon-8" viewBox="0 0 40 40">
            <image xlink:href="arrow.svg" x="0" y="0" height="50px" width="40px" />
        </symbol>

    </g>
    <defs>
        <radialGradient cx="50%" cy="50%" fx="50%" fy="50%" r="56.9855507%" id="radialGradient-1">
            <stop stop-color="#272727" offset="0%"></stop>
            <stop stop-color="#000000" stop-opacity="0.747509058" offset="100%"></stop>
        </radialGradient>
        <circle id="path-2" cx="95" cy="95" r="95"></circle>
        <filter x="-1.3%" y="-1.3%" width="102.6%" height="102.6%" filterUnits="objectBoundingBox" id="filter-3">
            <feGaussianBlur stdDeviation="2.5" in="SourceAlpha" result="shadowBlurInner1"></feGaussianBlur>
            <feOffset dx="0" dy="0" in="shadowBlurInner1" result="shadowOffsetInner1"></feOffset>
            <feComposite in="shadowOffsetInner1" in2="SourceAlpha" operator="arithmetic" k2="-1" k3="1" result="shadowInnerInner1"></feComposite>
            <feColorMatrix values="0 0 0 0 0.928358844   0 0 0 0 0.928358844   0 0 0 0 0.928358844  0 0 0 0.791666667 0" type="matrix" in="shadowInnerInner1"></feColorMatrix>
        </filter>
        <path d="M95.9323003,25.2462582 L100.095369,35.2376233 C100.180336,35.4415438 100.083905,35.6757334 99.8799845,35.7607002 C99.7627375,35.8095532 99.6292568,35.7998167 99.5203401,35.7344666 L95.5630696,33.3601043 L91.6057991,35.7344666 C91.416367,35.8481259 91.1706629,35.7866999 91.0570036,35.5972678 C90.9916536,35.488351 90.9819171,35.3548704 91.03077,35.2376233 L95.1938388,25.2462582 C95.2788057,25.0423377 95.5129952,24.9459067 95.7169157,25.0308736 C95.8143066,25.0714531 95.8917208,25.1488673 95.9323003,25.2462582 Z" id="path-4"></path>
        <filter x="-32.9%" y="-27.8%" width="165.7%" height="155.6%" filterUnits="objectBoundingBox" id="filter-5">
            <feOffset dx="0" dy="0" in="SourceAlpha" result="shadowOffsetOuter1"></feOffset>
            <feGaussianBlur stdDeviation="1" in="shadowOffsetOuter1" result="shadowBlurOuter1"></feGaussianBlur>
            <feColorMatrix values="0 0 0 0 0.235294118   0 0 0 0 0.541176471   0 0 0 0 0.992156863  0 0 0 0.696586277 0" type="matrix" in="shadowBlurOuter1"></feColorMatrix>
        </filter>
        <path d="M166.545272,96.9323003 L156.553907,101.095369 C156.349986,101.180336 156.115797,101.083905 156.03083,100.879985 C155.981977,100.762737 155.991713,100.629257 156.057063,100.52034 L158.431426,96.5630696 L156.057063,92.6057991 C155.943404,92.416367 156.00483,92.1706629 156.194262,92.0570036 C156.303179,91.9916536 156.43666,91.9819171 156.553907,92.03077 L166.545272,96.1938388 C166.749192,96.2788057 166.845623,96.5129952 166.760656,96.7169157 C166.720077,96.8143066 166.642663,96.8917208 166.545272,96.9323003 Z" id="path-6"></path>
        <filter x="-27.8%" y="-32.9%" width="155.6%" height="165.7%" filterUnits="objectBoundingBox" id="filter-7">
            <feOffset dx="0" dy="0" in="SourceAlpha" result="shadowOffsetOuter1"></feOffset>
            <feGaussianBlur stdDeviation="1" in="shadowOffsetOuter1" result="shadowBlurOuter1"></feGaussianBlur>
            <feColorMatrix values="0 0 0 0 0.235294118   0 0 0 0 0.541176471   0 0 0 0 0.992156863  0 0 0 0.696586277 0" type="matrix" in="shadowBlurOuter1"></feColorMatrix>
        </filter>
        <path d="M35.5452717,96.9323003 L25.5539066,101.095369 C25.3499861,101.180336 25.1157966,101.083905 25.0308297,100.879985 C24.9819767,100.762737 24.9917132,100.629257 25.0570633,100.52034 L27.4314256,96.5630696 L25.0570633,92.6057991 C24.943404,92.416367 25.00483,92.1706629 25.1942621,92.0570036 C25.3031789,91.9916536 25.4366595,91.9819171 25.5539066,92.03077 L35.5452717,96.1938388 C35.7491923,96.2788057 35.8456232,96.5129952 35.7606564,96.7169157 C35.7200768,96.8143066 35.6426626,96.8917208 35.5452717,96.9323003 Z" id="path-8"></path>
        <filter x="-27.8%" y="-32.9%" width="155.6%" height="165.7%" filterUnits="objectBoundingBox" id="filter-9">
            <feOffset dx="0" dy="0" in="SourceAlpha" result="shadowOffsetOuter1"></feOffset>
            <feGaussianBlur stdDeviation="1" in="shadowOffsetOuter1" result="shadowBlurOuter1"></feGaussianBlur>
            <feColorMatrix values="0 0 0 0 0.235294118   0 0 0 0 0.541176471   0 0 0 0 0.992156863  0 0 0 0.696586277 0" type="matrix" in="shadowBlurOuter1"></feColorMatrix>
        </filter>
        <path d="M147.191503,143.411175 L137.200138,147.574244 C136.996217,147.659211 136.762028,147.56278 136.677061,147.358859 C136.628208,147.241612 136.637944,147.108131 136.703294,146.999215 L139.077657,143.041944 L136.703294,139.084674 C136.589635,138.895242 136.651061,138.649538 136.840493,138.535878 C136.94941,138.470528 137.082891,138.460792 137.200138,138.509645 L147.191503,142.672713 C147.395423,142.75768 147.491854,142.99187 147.406887,143.19579 C147.366308,143.293181 147.288894,143.370596 147.191503,143.411175 Z" id="path-10"></path>
        <filter x="-27.8%" y="-32.9%" width="155.6%" height="165.7%" filterUnits="objectBoundingBox" id="filter-11">
            <feOffset dx="0" dy="0" in="SourceAlpha" result="shadowOffsetOuter1"></feOffset>
            <feGaussianBlur stdDeviation="1" in="shadowOffsetOuter1" result="shadowBlurOuter1"></feGaussianBlur>
            <feColorMatrix values="0 0 0 0 0.235294118   0 0 0 0 0.541176471   0 0 0 0 0.992156863  0 0 0 0.696586277 0" type="matrix" in="shadowBlurOuter1"></feColorMatrix>
        </filter>
        <path d="M147.191503,50.411175 L137.200138,54.5742438 C136.996217,54.6592107 136.762028,54.5627797 136.677061,54.3588592 C136.628208,54.2416122 136.637944,54.1081315 136.703294,53.9992148 L139.077657,50.0419443 L136.703294,46.0846738 C136.589635,45.8952417 136.651061,45.6495376 136.840493,45.5358783 C136.94941,45.4705283 137.082891,45.4607918 137.200138,45.5096447 L147.191503,49.6727135 C147.395423,49.7576804 147.491854,49.9918699 147.406887,50.1957904 C147.366308,50.2931813 147.288894,50.3705955 147.191503,50.411175 Z" id="path-12"></path>
        <filter x="-27.8%" y="-32.9%" width="155.6%" height="165.7%" filterUnits="objectBoundingBox" id="filter-13">
            <feOffset dx="0" dy="0" in="SourceAlpha" result="shadowOffsetOuter1"></feOffset>
            <feGaussianBlur stdDeviation="1" in="shadowOffsetOuter1" result="shadowBlurOuter1"></feGaussianBlur>
            <feColorMatrix values="0 0 0 0 0.235294118   0 0 0 0 0.541176471   0 0 0 0 0.992156863  0 0 0 0.696586277 0" type="matrix" in="shadowBlurOuter1"></feColorMatrix>
        </filter>
        <path d="M55.1915028,143.411175 L45.2001377,147.574244 C44.9962172,147.659211 44.7620277,147.56278 44.6770608,147.358859 C44.6282078,147.241612 44.6379443,147.108131 44.7032944,146.999215 L47.0776567,143.041944 L44.7032944,139.084674 C44.5896351,138.895242 44.6510611,138.649538 44.8404932,138.535878 C44.94941,138.470528 45.0828906,138.460792 45.2001377,138.509645 L55.1915028,142.672713 C55.3954233,142.75768 55.4918543,142.99187 55.4068874,143.19579 C55.3663079,143.293181 55.2888937,143.370596 55.1915028,143.411175 Z" id="path-14"></path>
        <filter x="-27.8%" y="-32.9%" width="155.6%" height="165.7%" filterUnits="objectBoundingBox" id="filter-15">
            <feOffset dx="0" dy="0" in="SourceAlpha" result="shadowOffsetOuter1"></feOffset>
            <feGaussianBlur stdDeviation="1" in="shadowOffsetOuter1" result="shadowBlurOuter1"></feGaussianBlur>
            <feColorMatrix values="0 0 0 0 0.235294118   0 0 0 0 0.541176471   0 0 0 0 0.992156863  0 0 0 0.696586277 0" type="matrix" in="shadowBlurOuter1"></feColorMatrix>
        </filter>
        <path d="M95.9323003,156.246258 L100.095369,166.237623 C100.180336,166.441544 100.083905,166.675733 99.8799845,166.7607 C99.7627375,166.809553 99.6292568,166.799817 99.5203401,166.734467 L95.5630696,164.360104 L91.6057991,166.734467 C91.416367,166.848126 91.1706629,166.7867 91.0570036,166.597268 C90.9916536,166.488351 90.9819171,166.35487 91.03077,166.237623 L95.1938388,156.246258 C95.2788057,156.042338 95.5129952,155.945907 95.7169157,156.030874 C95.8143066,156.071453 95.8917208,156.148867 95.9323003,156.246258 Z" id="path-16"></path>
        <filter x="-32.9%" y="-27.8%" width="165.7%" height="155.6%" filterUnits="objectBoundingBox" id="filter-17">
            <feOffset dx="0" dy="0" in="SourceAlpha" result="shadowOffsetOuter1"></feOffset>
            <feGaussianBlur stdDeviation="1" in="shadowOffsetOuter1" result="shadowBlurOuter1"></feGaussianBlur>
            <feColorMatrix values="0 0 0 0 0.235294118   0 0 0 0 0.541176471   0 0 0 0 0.992156863  0 0 0 0.696586277 0" type="matrix" in="shadowBlurOuter1"></feColorMatrix>
        </filter>
    </defs>
    <g id="v1.0" stroke="none" stroke-width="1" fill="none" fill-rule="evenodd">
        <g id="AR实景画面" transform="translate(-1620.000000, -860.000000)">
            <g id="ptz-全部" transform="translate(1620.000000, 860.000000)">
                <g id="Oval-Copy-3" opacity="0.86" style="mix-blend-mode: multiply;">
                    <use fill="url(#radialGradient-1)" fill-rule="evenodd" xlink:href="#path-2"></use>
                    <use fill="black" fill-opacity="1" filter="url(#filter-3)" xlink:href="#path-2"></use>
                </g>
                <circle id="Oval" fill="#E3C033" cx="96" cy="96" r="40"></circle>
                <circle id="Oval" fill="#121621" style="mix-blend-mode: multiply;" cx="96" cy="96" r="32"></circle>
                <g id="Triangle-Copy">
                    <use fill="black" fill-opacity="1" filter="url(#filter-5)" xlink:href="#path-4"></use>
                    <use fill="#FFFFFF" fill-rule="evenodd" xlink:href="#path-4"></use>
                </g>
                <g id="Triangle-Copy-3">
                    <use fill="black" fill-opacity="1" filter="url(#filter-7)" xlink:href="#path-6"></use>
                    <use fill="#FFFFFF" fill-rule="evenodd" xlink:href="#path-6"></use>
                </g>
                <g id="Triangle-Copy-4" transform="translate(30.395765, 96.563121) scale(-1, 1) translate(-30.395765, -96.563121) ">
                    <use fill="black" fill-opacity="1" filter="url(#filter-9)" xlink:href="#path-8"></use>
                    <use fill="#FFFFFF" fill-rule="evenodd" xlink:href="#path-8"></use>
                </g>
                <g id="Triangle-Copy-3" transform="translate(142.041996, 143.041996) rotate(45.000000) translate(-142.041996, -143.041996) ">
                    <use fill="black" fill-opacity="1" filter="url(#filter-11)" xlink:href="#path-10"></use>
                    <use fill="#FFFFFF" fill-rule="evenodd" xlink:href="#path-10"></use>
                </g>
                <g id="Triangle-Copy-6" transform="translate(142.041996, 50.041996) scale(1, -1) rotate(45.000000) translate(-142.041996, -50.041996) ">
                    <use fill="black" fill-opacity="1" filter="url(#filter-13)" xlink:href="#path-12"></use>
                    <use fill="#FFFFFF" fill-rule="evenodd" xlink:href="#path-12"></use>
                </g>
                <g id="Triangle-Copy-5" transform="translate(50.041996, 143.041996) scale(-1, 1) rotate(45.000000) translate(-50.041996, -143.041996) ">
                    <use fill="black" fill-opacity="1" filter="url(#filter-15)" xlink:href="#path-14"></use>
                    <use fill="#FFFFFF" fill-rule="evenodd" xlink:href="#path-14"></use>
                </g>
                <path d="M54.1915028,50.411175 L44.2001377,54.5742438 C43.9962172,54.6592107 43.7620277,54.5627797 43.6770608,54.3588592 C43.6282078,54.2416122 43.6379443,54.1081315 43.7032944,53.9992148 L46.0776567,50.0419443 L43.7032944,46.0846738 C43.5896351,45.8952417 43.6510611,45.6495376 43.8404932,45.5358783 C43.94941,45.4705283 44.0828906,45.4607918 44.2001377,45.5096447 L54.1915028,49.6727135 C54.3954233,49.7576804 54.4918543,49.9918699 54.4068874,50.1957904 C54.3663079,50.2931813 54.2888937,50.3705955 54.1915028,50.411175 Z" id="Triangle-Copy-7" fill="#E3C033" opacity="0.9" transform="translate(49.041996, 50.041996) scale(-1, -1) rotate(45.000000) translate(-49.041996, -50.041996) "></path>
                <g id="Triangle-Copy-2" transform="translate(95.563121, 161.395765) scale(1, -1) translate(-95.563121, -161.395765) ">
                    <use fill="black" fill-opacity="1" filter="url(#filter-17)" xlink:href="#path-16"></use>
                    <use fill="#FFFFFF" fill-rule="evenodd" xlink:href="#path-16"></use>
                </g>
                <text id="巡视" font-family="PingFangSC-Regular, PingFang SC" font-size="14" font-weight="normal" fill="#FFFFFF">
                    <tspan x="82" y="101">巡视</tspan>
                </text>
            </g>
        </g>
    </g>
</svg>